<svg xmlns="http://www.w3.org/2000/svg" xmlns:xlink="http://www.w3.org/1999/xlink" width="347.207" height="52.379" viewBox="0 0 347.207 52.379"><defs><style>.a{fill:none;}.b{fill:url(#a);}.c{fill:url(#b);}.d{clip-path:url(#c);}.e{fill:#161615;}</style><linearGradient id="a" x1="-0.359" y1="-0.18" x2="1.723" y2="1.229" gradientUnits="objectBoundingBox"><stop offset="0" stop-color="#dcbe78"/><stop offset="0.479" stop-color="#ffdcbe"/><stop offset="1" stop-color="#dcbe78"/></linearGradient><linearGradient id="b" x1="-0.871" y1="-0.376" x2="1.7" y2="1.541" xlink:href="#a"/><clipPath id="c"><rect class="a" width="278.207" height="39.25" transform="translate(0 0)"/></clipPath></defs><g transform="translate(-50 -50.546)"><g transform="translate(1.31 -211.644)"><g transform="translate(48.69 262.19)"><path class="b" d="M65.969,266.057l5.155-3.867-10.7,52.379L48.69,304.243Z" transform="translate(-48.69 -262.19)"/><path class="c" d="M127.758,266.057,122.6,262.19l10.7,52.379,11.738-10.322Z" transform="translate(-98.38 -262.19)"/></g></g></g><g transform="translate(69 11.433)"><g class="d" transform="translate(0 0)"><path class="e" d="M683.247,22.9q-3.009-2.961-8.48-2.961a13.327,13.327,0,0,0-5.138.868,8.184,8.184,0,0,0-3.247,2.308,8.855,8.855,0,0,0-1.677,3.152h-.233l.186-5.638h-5.875V51.6h5.852V43.606l-.118-5.661h.26a7.783,7.783,0,0,0,1.772,3.331,8.291,8.291,0,0,0,3.307,2.164,13.663,13.663,0,0,0,4.793.761q5.447,0,8.528-2.961t3.08-8.647V31.5q0-5.638-3.009-8.6m-2.914,9.694a6.319,6.319,0,0,1-2,5.043,8.135,8.135,0,0,1-5.519,1.736,11.222,11.222,0,0,1-4.163-.725,6.444,6.444,0,0,1-2.914-2.212,6.871,6.871,0,0,1-1.2-3.771V29.64a7.177,7.177,0,0,1,1.439-2.316,8.145,8.145,0,0,1,2.89-1.974,10.161,10.161,0,0,1,3.949-.726,8.128,8.128,0,0,1,5.531,1.737,6.28,6.28,0,0,1,1.986,5Z" transform="translate(-408.05 -12.35)"/><path class="e" d="M594.894,35.805a7.3,7.3,0,0,1-1.225,2.061,7.217,7.217,0,0,1-2.581,1.915,9.1,9.1,0,0,1-3.782.713,7.118,7.118,0,0,1-3.734-.844,4.685,4.685,0,0,1-1.963-2.3,8.88,8.88,0,0,1-.583-3.33V21.75h-5.852V34.9a14.2,14.2,0,0,0,1.011,5.661,7.24,7.24,0,0,0,3.188,3.545,11.549,11.549,0,0,0,5.65,1.213,12.512,12.512,0,0,0,4.924-.856,8.584,8.584,0,0,0,3.223-2.3,7.978,7.978,0,0,0,1.677-3.128h.251l-.2,5.614h5.9V21.75h-5.9Z" transform="translate(-356.263 -13.472)"/><path class="e" d="M514.592,22.709q-3.521-3.021-10.252-3.021-6.708,0-10.24,3.021t-3.533,8.635v1.094q0,5.638,3.533,8.659t10.24,3.021q6.732,0,10.252-3.021t3.521-8.659V31.344q0-5.614-3.521-8.635m-2.379,9.8a6.525,6.525,0,0,1-2.046,5.162,10.278,10.278,0,0,1-11.644,0,6.543,6.543,0,0,1-2.034-5.162V31.272a6.507,6.507,0,0,1,2.034-5.15,8.473,8.473,0,0,1,5.792-1.8,8.592,8.592,0,0,1,5.864,1.8,6.508,6.508,0,0,1,2.034,5.15Z" transform="translate(-303.857 -12.195)"/><path class="e" d="M453.869,20.616a8.785,8.785,0,0,0-1.879-.178,8.923,8.923,0,0,0-5.875,1.867,9.7,9.7,0,0,0-3.14,5.055h-.246l.2-6.423h-5.781V43.845h5.876V30.86a8.4,8.4,0,0,1,3.235-3.594,10.367,10.367,0,0,1,5.495-1.4,13.528,13.528,0,0,1,2.153.167,12.381,12.381,0,0,1,1.843.428l-.428-5.448a14.442,14.442,0,0,0-1.451-.392" transform="translate(-270.768 -12.659)"/><path class="e" d="M354.345,18.626l9.015-.066v3.682a7.158,7.158,0,0,1-1.8,2.379,9.308,9.308,0,0,1-3.009,1.737,12.4,12.4,0,0,1-4.282.666q-5.329,0-8.028-2.676a10.027,10.027,0,0,1-2.7-7.457V15.3q0-4.971,2.95-7.648t8.968-2.676a25.685,25.685,0,0,1,7.124.892,35.815,35.815,0,0,1,5.554,2.081l-.595-5.114a21.4,21.4,0,0,0-3.33-1.391A29.308,29.308,0,0,0,359.935.4a31.173,31.173,0,0,0-5.209-.4Q346.114,0,341.7,4.02t-4.413,11.323v1.594a17.1,17.1,0,0,0,1.8,8.147,12.133,12.133,0,0,0,5.162,5.138,17.132,17.132,0,0,0,8.076,1.772,15.925,15.925,0,0,0,5.757-.88,8.591,8.591,0,0,0,3.473-2.331,8.233,8.233,0,0,0,1.713-3.188h.224l-.177,5.59h5.709V13.94H354.345Z" transform="translate(-208.917 0)"/><path class="e" d="M314.288,66.125a3.645,3.645,0,0,0-2.676.869,3.2,3.2,0,0,0-.869,2.367V69.5a3.189,3.189,0,0,0,.869,2.379,3.678,3.678,0,0,0,2.676.856A3.761,3.761,0,0,0,317,71.882a3.167,3.167,0,0,0,.88-2.379V69.36a3.166,3.166,0,0,0-.88-2.379,3.758,3.758,0,0,0-2.712-.857" transform="translate(-192.474 -40.958)"/><path class="e" d="M256.565,29.923q-3.14,0-4.377-1.237a5.256,5.256,0,0,1-1.237-3.854V16.151h9.261l.87-4.568h-10.26L251,4.875l-5.828.547.022,6.161H240.7v4.568h4.424V25.5a12.714,12.714,0,0,0,.928,5.174,6.226,6.226,0,0,0,3.08,3.128,13.529,13.529,0,0,0,5.84,1.046,21.487,21.487,0,0,0,4.329-.416,17.37,17.37,0,0,0,3.568-1.106l.571-4.877a17.061,17.061,0,0,1-6.874,1.475" transform="translate(-149.089 -3.02)"/><path class="e" d="M187.936,21.175a11.3,11.3,0,0,0-5.637-1.237,12.453,12.453,0,0,0-4.936.868,8.379,8.379,0,0,0-4.912,5.459H172.2l.2-5.638h-5.876V43.535H172.4V29.561a7.482,7.482,0,0,1,1.261-2.154,7.164,7.164,0,0,1,2.569-1.9,8.967,8.967,0,0,1,3.735-.714,7.135,7.135,0,0,1,3.794.856,4.635,4.635,0,0,1,1.927,2.308,9.147,9.147,0,0,1,.559,3.306V43.535h5.923V30.381a13.831,13.831,0,0,0-1.034-5.65,7.514,7.514,0,0,0-3.2-3.556" transform="translate(-103.147 -12.35)"/><path class="e" d="M105.383,21.044a17.061,17.061,0,0,0-7.231-1.356q-6.351,0-9.729,3.068t-3.378,8.587v1.142q0,5.59,3.521,8.623t10.609,3.033a25.675,25.675,0,0,0,6.161-.678,19.144,19.144,0,0,0,4.805-1.844l.595-4.662a24.593,24.593,0,0,1-5.031,1.855,22.72,22.72,0,0,1-5.554.666,17.826,17.826,0,0,1-4.531-.488,7.373,7.373,0,0,1-2.866-1.368,5.088,5.088,0,0,1-1.5-2.01,6.336,6.336,0,0,1-.417-1.772h20.089q.119-.618.19-1.38t.071-1.474v-.309a11.267,11.267,0,0,0-1.451-5.8,9.568,9.568,0,0,0-4.353-3.83M98.152,24.16a10.152,10.152,0,0,1,4.163.749,5.379,5.379,0,0,1,2.5,2.141,6.155,6.155,0,0,1,.809,2.771H90.783a5.781,5.781,0,0,1,1.826-3.972,7.99,7.99,0,0,1,5.542-1.689" transform="translate(-52.677 -12.195)"/><path class="e" d="M26.987,21.985a6.245,6.245,0,0,0-2.51-2.783,7.828,7.828,0,0,0-2.378-.865V18.12A8.007,8.007,0,0,0,27.213,15.9a7.006,7.006,0,0,0,1.641-4.912v-.4a7.649,7.649,0,0,0-2.735-6.292q-2.736-2.224-8.635-2.224H0v30.4H5.875V21.6l9.848.02a8.329,8.329,0,0,1,3.628.642,4.17,4.17,0,0,1,1.939,1.951,12.04,12.04,0,0,1,.975,3.259l.928,5h6.375l-1.213-6.042a19.358,19.358,0,0,0-1.368-4.436M16.7,17l-10.824.041V6.8h10.9q3.187,0,4.6,1.3a4.582,4.582,0,0,1,1.415,3.556v.333a4.781,4.781,0,0,1-1.451,3.651Q19.886,17,16.7,17" transform="translate(0 -1.278)"/></g></g></svg>