<?xml version="1.0" encoding="UTF-8"?><svg id="uuid-e169f19d-0dca-4e3a-880d-d1c33f199194" xmlns="http://www.w3.org/2000/svg" xmlns:xlink="http://www.w3.org/1999/xlink" viewBox="0 0 258.72 140.09"><defs><clipPath id="uuid-257f533a-2d14-4dc2-a849-7aaa1e18aa11"><rect x="0" y="0" width="258.72" height="140.09" style="fill:none;"/></clipPath></defs><g style="clip-path:url(#uuid-257f533a-2d14-4dc2-a849-7aaa1e18aa11);"><path d="M172.99,83.46l19.27-33.73h-29.93v6.9h16.36l-19.33,33.73h31.85v-6.9h-18.23Zm-37.06-26.39v33.28h8.24V57.08h12.31v-7.03h-32.81v7.03h12.26Zm-18.81-7.08h-8.35v40.37h8.35V49.99Zm-32.92,7.2c4.75,0,7.08,.9,7.08,5.06s-2.33,5.12-7.08,5.12h-9.78v-10.18h9.78Zm-17.75-7.2v40.37h7.98v-15.85h9.4l8.35,15.85h8.98l-9.46-16.87c4.91-1.12,7.66-5.12,7.66-11.36,0-8.49-4.28-12.14-13.26-12.14h-19.66Z" style="fill:#fff;"/></g><path d="M74.74,103.3h109.25l-54.62,29.99-54.62-29.99ZM12.89,70.11l51.17-28.1H194.66l51.17,28.1-51.17,27.57H64.06L12.89,70.11ZM129.36,6.64l54.62,29.76H74.74L129.36,6.64Zm.05-6.64L0,70.11l129.31,69.98,129.41-69.98L129.41,0Z" style="fill:#fff;"/></svg>